<mxfile host="e4a712d1-aa37-4557-aef7-e70cf03da854" modified="2020-09-28T21:59:38.517Z" agent="5.0 (Macintosh; Intel Mac OS X 10_15_7) AppleWebKit/537.36 (KHTML, like Gecko) Code/1.49.2 Chrome/83.0.4103.122 Electron/9.2.1 Safari/537.36" etag="PskXfWLcW0Bai38PpZOy" version="13.6.5">
    <diagram id="6hGFLwfOUW9BJ-s0fimq" name="Page-1">
        <mxGraphModel dx="279" dy="815" grid="1" gridSize="10" guides="1" tooltips="1" connect="1" arrows="1" fold="1" page="1" pageScale="1" pageWidth="827" pageHeight="1169" math="0" shadow="0">
            <root>
                <mxCell id="0"/>
                <mxCell id="1" parent="0"/>
                <mxCell id="4" value="&lt;p style=&quot;margin: 0px ; margin-top: 4px ; text-align: center&quot;&gt;&lt;br&gt;&lt;b&gt;Drawing&lt;/b&gt;&lt;/p&gt;" style="verticalAlign=top;align=left;overflow=fill;fontSize=12;fontFamily=Helvetica;html=1;" parent="1" vertex="1">
                    <mxGeometry x="160" y="320" width="120" height="50" as="geometry"/>
                </mxCell>
                <mxCell id="5" value="&lt;p style=&quot;margin: 0px ; margin-top: 4px ; text-align: center&quot;&gt;&lt;i&gt;&lt;br&gt;&lt;b&gt;Shape&lt;/b&gt;&lt;/i&gt;&lt;/p&gt;" style="verticalAlign=top;align=left;overflow=fill;fontSize=12;fontFamily=Helvetica;html=1;" parent="1" vertex="1">
                    <mxGeometry x="400" y="320" width="120" height="50" as="geometry"/>
                </mxCell>
                <mxCell id="10" value="" style="ellipse;html=1;shape=endState;fillColor=#000000;strokeColor=none;fontSize=12;" parent="1" vertex="1">
                    <mxGeometry x="388" y="338" width="15" height="15" as="geometry"/>
                </mxCell>
                <mxCell id="13" value="" style="endArrow=blockThin;html=1;endSize=12;startArrow=diamondThin;startSize=12;startFill=0;edgeStyle=orthogonalEdgeStyle;align=left;verticalAlign=bottom;strokeColor=#000000;fontSize=12;endFill=1;entryX=0.219;entryY=0.475;entryDx=0;entryDy=0;entryPerimeter=0;" parent="1" target="10" edge="1">
                    <mxGeometry x="-1" y="3" relative="1" as="geometry">
                        <mxPoint x="280" y="345.21" as="sourcePoint"/>
                        <mxPoint x="360" y="345.21" as="targetPoint"/>
                    </mxGeometry>
                </mxCell>
                <mxCell id="14" value="shapes" style="text;strokeColor=none;fillColor=none;align=left;verticalAlign=top;spacingLeft=4;spacingRight=4;overflow=hidden;rotatable=0;points=[[0,0.5],[1,0.5]];portConstraint=eastwest;fontSize=9;" parent="1" vertex="1">
                    <mxGeometry x="288" y="325" width="50" height="16" as="geometry"/>
                </mxCell>
            </root>
        </mxGraphModel>
    </diagram>
</mxfile>